<svg width="88" height="88" viewBox="0 0 88 88" fill="none" xmlns="http://www.w3.org/2000/svg">
<g id="award-champion-general-svgrepo-com 1">
<g id="Group">
<g id="Group_2">
<path id="Vector" d="M12.5834 53.327L0.43457 69.7037L14.5774 71.3322C15.6315 71.4531 16.5395 72.1387 16.9496 73.1212L22.393 86.2381L35.2932 69.1303C25.8724 66.8935 17.8034 61.1513 12.5834 53.327Z" fill="#647F94"/>
<path id="Vector_2" d="M75.4574 53.2341C70.2934 61.0197 62.3193 66.7533 52.998 69.049L65.9582 86.238L71.3997 73.1212C71.8059 72.1387 72.7139 71.453 73.768 71.3322L87.8731 69.7095L75.4574 53.2341Z" fill="#647F94"/>
<path id="Vector_3" d="M43.9905 15.6301C34.7167 15.6301 27.1748 23.174 27.1748 32.4468C27.1748 41.7168 34.7167 49.2587 43.9905 49.2587C53.2625 49.2587 60.8082 41.7168 60.8082 32.4468C60.8082 23.174 53.2625 15.6301 43.9905 15.6301Z" fill="#6EC4A7"/>
<path id="Vector_4" d="M75.8688 32.4458C75.8688 14.8671 61.5693 0.565674 43.9925 0.565674C26.4138 0.565674 12.1143 14.8671 12.1143 32.4458C12.1143 50.0207 26.4138 64.3202 43.9925 64.3202C61.5693 64.3212 75.8688 50.0217 75.8688 32.4458ZM43.9906 55.117C31.4868 55.117 21.3185 44.9477 21.3185 32.4458C21.3185 19.9431 31.4878 9.76989 43.9906 9.76989C56.4962 9.76989 66.6646 19.944 66.6646 32.4458C66.6656 44.9477 56.4962 55.117 43.9906 55.117Z" fill="#647F94"/>
</g>
</g>
</g>
</svg>
