<svg width="70" height="70" viewBox="0 0 70 70" fill="none" xmlns="http://www.w3.org/2000/svg">
<g id="profit-svgrepo-com 1">
<path id="Vector" d="M56.2646 41.8053C56.1728 41.4378 56.0765 41.0747 55.9715 40.7116C55.7506 39.9459 55.4618 39.2131 55.1184 38.4956C54.4709 37.1437 53.5675 35.9909 52.64 34.8206C51.8 33.7706 50.7084 32.9678 49.7721 32.0097C49.304 31.5284 48.8556 31.0362 48.3765 30.5681C48.3021 30.4937 48.2168 30.4303 48.1381 30.3581C48.1381 30.3384 48.149 30.3231 48.149 30.3034C48.149 30.2203 48.114 30.1459 48.1009 30.065C48.2015 29.8047 48.2518 29.5291 48.2343 29.2359C48.2365 29.2578 48.2409 29.2797 48.2431 29.3016C48.1184 27.8009 48.125 26.2828 48.0593 24.7822C48.0331 24.1588 47.7093 23.625 47.2325 23.2903C47.309 23.0694 47.3703 22.8506 47.4075 22.5947C47.4622 22.2425 47.5278 21.8969 47.6 21.5491C47.7465 20.8337 47.9215 20.1272 48.0965 19.4163C48.2671 18.7228 48.4859 18.0403 48.7112 17.3666C48.8621 16.9116 49.0087 16.4588 49.1246 15.9994C49.3259 15.2097 49.3718 14.3828 49.3587 13.5712C49.35 13.0112 49.3587 12.3834 49.1618 11.8606C49.0109 11.4625 48.8315 11.1125 48.5056 10.8281C48.3415 10.6903 48.1534 10.5525 47.974 10.4212C47.6196 10.1631 47.2303 9.99031 46.8081 9.84812C46.3312 9.68844 45.8303 9.58781 45.3446 9.45438C45.1565 9.40406 44.9662 9.36031 44.7737 9.31875C44.7671 9.03 44.7606 8.74125 44.7475 8.45469C44.7234 7.91219 44.6512 7.37625 44.5768 6.83812C44.5046 6.33281 44.2421 5.90844 43.9075 5.53656C43.6056 5.20187 43.179 5.03781 42.7743 4.88906C42.4068 4.75125 42.0043 4.585 41.6171 4.53031C41.149 4.4625 40.7093 4.41656 40.2368 4.42531C39.8059 4.43188 39.3662 4.50406 38.9375 4.54125C38.0165 4.61344 37.089 4.57625 36.1703 4.55438C35.7262 4.54563 35.2887 4.52156 34.8446 4.50844C34.5471 4.49969 34.2518 4.50406 33.9543 4.50844C33.7575 4.50844 33.5606 4.51281 33.3659 4.50844C32.48 4.49969 31.5896 4.42969 30.7059 4.38375C30.5987 4.37719 30.4959 4.375 30.3953 4.375C30.0234 4.375 29.645 4.41 29.2884 4.48C28.4375 4.64188 27.7396 5.29375 27.4793 6.10969C27.3284 6.58656 27.3371 7.17938 27.3284 7.6825C27.3153 8.22719 27.3503 8.77406 27.3568 9.32313C27.3656 9.92031 27.3809 10.5219 27.3896 11.1213C27.394 11.4538 27.4028 11.7884 27.405 12.1209C26.9587 12.1384 26.5125 12.1625 26.064 12.1997C25.4275 12.25 24.7975 12.3288 24.1653 12.4184C23.8065 12.4688 23.4871 12.6109 23.1612 12.7619C22.8221 12.9172 22.5881 13.2716 22.3803 13.5472C22.1681 13.8359 22.1134 14.3172 22.1003 14.6497C22.0959 14.8969 22.1637 15.1484 22.2096 15.3891C22.3103 15.8878 22.494 16.3669 22.6493 16.8525C22.8287 17.4169 22.9468 18.0031 23.0671 18.585C23.2137 19.2631 23.3646 19.9303 23.5265 20.6041C23.6184 20.9737 23.7606 21.3325 23.8853 21.6956C23.684 21.8247 23.5156 21.9822 23.38 22.1791C23.24 22.2622 23.0934 22.33 22.9796 22.4459C22.5859 22.8441 22.47 23.2859 22.4109 23.8219C22.2906 24.9003 22.2403 25.9744 22.1637 27.055C22.1221 27.7069 22.2096 28.3719 22.3803 28.9997C22.4743 29.3409 22.68 29.6122 22.9206 29.8463C22.2271 30.4916 21.5556 31.1631 20.8665 31.8128C20.1687 32.4734 19.5628 33.2194 18.9393 33.9456C18.1868 34.8184 17.4475 35.6934 16.7825 36.6384C16.159 37.5156 15.7368 38.4869 15.3278 39.4778C14.9843 40.3003 14.6671 41.1338 14.3587 41.965C14.0196 42.8772 13.8271 43.8594 13.6609 44.8175C13.2978 46.9 13.4312 49.0656 13.8709 51.1219C13.9912 51.6906 14.1968 52.2506 14.3806 52.8041C14.6059 53.4822 14.8903 54.1341 15.1834 54.7859C15.4131 55.3044 15.6931 55.8119 15.9621 56.3128C16.439 57.19 17.174 57.8266 17.8653 58.5244C18.7228 59.3928 19.5409 60.2809 20.4531 61.0969C21.1815 61.7444 21.9625 62.3262 22.8331 62.7703C23.4806 63.105 24.1543 63.3806 24.8281 63.6606C24.664 63.595 24.5021 63.5272 24.3425 63.4616C25.2634 63.8553 26.1734 64.3431 27.1446 64.6144C27.989 64.8572 28.8553 64.9622 29.7193 65.1131C30.7321 65.2838 31.78 65.415 32.8103 65.4522C33.659 65.4806 34.499 65.5725 35.3478 65.5988C37.0037 65.6447 38.664 65.695 40.3025 65.4238C41.0812 65.2925 41.8403 65.1219 42.6059 64.9381C43.4721 64.7303 44.3078 64.3869 45.1346 64.0609C46.1081 63.6759 47.0575 63.2581 47.9609 62.7266C48.8468 62.2125 49.6365 61.5694 50.3825 60.865C51.8131 59.5197 53.305 58.1394 54.1625 56.3369C54.6131 55.3831 54.9871 54.3966 55.2912 53.3837C55.5712 52.4606 55.8731 51.5572 56.0525 50.6034C56.2537 49.5534 56.3412 48.4663 56.3368 47.3966C56.3325 46.9197 56.3412 46.4384 56.3543 45.9637C56.3718 45.3316 56.4834 44.6994 56.5381 44.0738C56.5971 43.3191 56.444 42.5272 56.2646 41.8053ZM26.1537 28.1422C26.1428 28.0831 26.1581 28.0219 26.1406 27.9628C26.0881 27.7834 26.0443 27.5997 26.0071 27.4159C25.9415 26.5694 26.0443 25.7075 26.1625 24.8609C28.6496 24.7712 31.139 24.6794 33.6306 24.6706C36.4284 24.6597 39.2328 24.6794 42.0175 25.0053C41.8709 24.99 41.7243 24.9681 41.5778 24.9484C42.2209 25.0403 42.8487 25.0994 43.5006 25.1191C43.7981 25.13 44.0978 25.1497 44.3953 25.1694C44.4434 25.8825 44.4915 26.5934 44.5396 27.3109C44.5746 27.79 44.6053 28.2734 44.6381 28.7569C44.2268 28.7787 43.8178 28.7875 43.4043 28.7853C43.1659 28.7809 42.9231 28.7809 42.6846 28.7809C41.9606 28.7897 41.2431 28.7569 40.519 28.7394C38.9046 28.7066 37.2946 28.7394 35.6803 28.6978C32.504 28.6125 29.33 28.3587 26.1537 28.1422ZM45.605 13.4334C45.6093 13.4597 45.6115 13.4859 45.6159 13.5122C45.6115 13.4859 45.6071 13.4575 45.605 13.4334ZM28.2603 15.5991C28.4921 15.6406 28.724 15.6844 28.9646 15.715C29.1615 15.7238 29.3496 15.6953 29.5246 15.6187C30.0015 15.4394 30.3493 15.2119 30.625 14.7744C30.9093 14.3216 31.01 13.7878 31.0428 13.265C31.0887 12.4425 31.0209 11.6178 31.0209 10.7953C31.0165 10.1128 31.045 9.43469 31.0668 8.75437C31.0734 8.53781 31.0778 8.32125 31.0865 8.10469C31.5568 8.13094 32.0271 8.18781 32.4887 8.23375C33.4425 8.33 34.4028 8.36719 35.3565 8.42188C36.3387 8.47656 37.3209 8.49844 38.3053 8.46344C39.0687 8.435 39.8256 8.38031 40.5846 8.43719C40.7137 8.46781 40.8384 8.50719 40.9631 8.55094C40.9718 8.60562 40.9806 8.65812 40.9893 8.71281C41.044 9.18313 41.0856 9.65563 41.0725 10.1303C41.0593 10.4869 41.0593 10.7581 41.1271 11.1344C41.195 11.5063 41.4618 11.795 41.6784 12.0794C41.895 12.355 42.3718 12.5431 42.6825 12.6525C43.0128 12.7641 43.3934 12.7903 43.7368 12.8581C44.2531 12.9609 44.7934 13.0966 45.2965 13.2737C45.395 13.3219 45.4912 13.3722 45.5853 13.4269C45.6334 13.9563 45.6575 14.4747 45.6181 15.0084C45.4015 16.2006 44.9356 17.3469 44.6731 18.5325C44.5396 19.1559 44.4106 19.775 44.2881 20.3984C44.1984 20.8491 44.124 21.3062 43.9928 21.7459C43.984 21.7612 43.9731 21.7744 43.9643 21.7897C43.645 21.7722 43.3234 21.7613 43.004 21.7481C42.2012 21.7109 41.3984 21.6934 40.5956 21.6388C38.8893 21.5228 37.1875 21.5272 35.4812 21.5316C33.7968 21.5316 32.1103 21.5184 30.4303 21.4769C29.5378 21.4572 28.6475 21.4462 27.7571 21.4309C27.5275 20.8337 27.2934 20.2322 27.1228 19.6197C26.9346 18.9547 26.7553 18.2897 26.5781 17.6247C26.4009 16.9663 26.1734 16.3166 25.9765 15.6603C26.7378 15.575 27.499 15.5422 28.2603 15.5991ZM25.084 59.4475C25.0818 59.4475 25.0775 59.4453 25.0753 59.4431C25.2328 59.5109 25.3903 59.5766 25.55 59.6422C25.3946 59.5787 25.2393 59.5131 25.084 59.4475ZM52.3818 44.3909C52.2637 45.1828 52.1521 45.9791 52.1237 46.7797C52.1018 47.4688 52.0756 48.1556 52.01 48.8425C51.87 49.6737 51.6643 50.4809 51.3843 51.2859C51.1262 52.0209 50.8987 52.7691 50.6187 53.4909C50.2534 54.3069 49.8662 55.0922 49.3609 55.8294C48.9059 56.3872 48.4181 56.9209 47.9018 57.4197C47.39 57.9184 46.8978 58.4238 46.3531 58.8787C45.675 59.3491 44.9575 59.7428 44.2028 60.0819C43.5115 60.3641 42.805 60.6287 42.0896 60.83C41.3853 61.0291 40.6415 61.1581 39.9109 61.2653C38.5634 61.425 37.2071 61.4513 35.8487 61.46C35.0284 61.4644 34.2256 61.3638 33.4075 61.3178C32.6243 61.2719 31.85 61.2719 31.069 61.1888C30.0956 61.0334 29.1221 60.8541 28.164 60.6134C27.6915 60.4975 27.2409 60.2831 26.7925 60.095C26.2237 59.8566 25.6528 59.6466 25.0753 59.4344C24.5328 59.1916 24.0121 58.8831 23.5287 58.5397C22.8309 57.9709 22.1681 57.3519 21.5315 56.7153C21.1881 56.3763 20.849 56.0306 20.5034 55.6916C20.0681 55.2694 19.5934 54.9041 19.1931 54.4469C18.6484 53.6681 18.1934 52.8303 17.7975 51.9684C17.4387 51.0344 17.1237 50.1003 16.9334 49.1159C16.8131 47.9303 16.7825 46.7534 16.8787 45.5634C17.0165 44.7016 17.2025 43.8528 17.4496 43.015C17.6968 42.1859 18.0293 41.3809 18.3618 40.5759C18.5587 40.1275 18.76 39.6834 18.9809 39.2481C19.1996 38.8084 19.4906 38.4059 19.7837 38.0078C20.5996 36.9972 21.4746 36.0084 22.3759 35.07C22.8484 34.58 23.3537 34.1381 23.8678 33.6941C24.4693 33.1756 25.0512 32.6287 25.644 32.1016C25.8081 31.9572 25.9175 31.7778 26.0028 31.5875C27.4771 31.64 28.9515 31.6838 30.4303 31.6991C32.1825 31.7166 33.9346 31.8631 35.6868 31.8828C36.4765 31.8916 37.2684 31.9025 38.0537 31.9113C38.2703 31.9156 38.4934 31.9156 38.71 31.9113C39.3159 31.9113 39.9218 31.9069 40.5256 31.9747C41.2409 32.0578 41.9715 32.0994 42.6912 32.1125C43.0915 32.1213 43.4896 32.1213 43.8921 32.1213C44.0978 32.1213 44.3034 32.1213 44.5112 32.1234C44.8984 32.4713 45.29 32.8147 45.664 33.1778C46.1234 33.6262 46.5303 34.1228 46.9721 34.5866C47.8559 35.5141 48.7943 36.3781 49.6103 37.3669C50.015 37.9334 50.4109 38.4978 50.774 39.0906C51.124 39.6681 51.3887 40.2916 51.6534 40.9128C51.6118 40.8144 51.5703 40.7159 51.5309 40.6175C51.5725 40.7181 51.614 40.8166 51.6556 40.9172C51.9837 41.7266 52.2637 42.5556 52.4212 43.4175C52.4343 43.7544 52.4168 44.0694 52.3818 44.3909ZM51.649 40.9303L51.6468 40.9259C51.649 40.9259 51.649 40.9303 51.649 40.9303C51.6512 40.9325 51.6512 40.9303 51.649 40.9303ZM40.1581 48.0047C40.2259 48.3153 40.309 48.6522 40.3046 48.9716C40.2959 49.8072 40.075 50.5816 39.5762 51.2531C39.095 51.905 38.4387 52.4628 37.7365 52.8675C37.1721 53.1934 36.575 53.4275 35.9428 53.5741C35.8793 53.9569 35.8093 54.3397 35.7481 54.7225C35.7393 54.8669 35.7437 55.0069 35.7612 55.1491C35.8203 55.6019 35.5315 56.1356 35.2296 56.4353C34.8862 56.7788 34.4225 56.9713 33.9412 56.9713C33.46 56.9713 32.9918 56.7788 32.6528 56.4353C32.294 56.0766 32.1584 55.6456 32.1168 55.1491C32.0884 54.7313 32.1453 54.3222 32.2 53.9022C32.2175 53.7622 32.2393 53.6222 32.259 53.4822C31.8696 53.3772 31.489 53.2372 31.1106 53.0622C30.7475 52.8916 30.3953 52.7034 30.0497 52.5066C29.2796 52.0844 29.0346 51.0475 29.4721 50.3081C29.9359 49.5097 30.8853 49.3413 31.6706 49.7262C31.8828 49.8312 32.095 49.9362 32.3093 50.0325C32.6309 50.1506 32.9503 50.2381 33.2828 50.3016C33.7728 50.33 34.2584 50.3191 34.7462 50.2797C34.9715 50.2359 35.1925 50.1791 35.409 50.1047C35.6671 49.9691 35.9078 49.8159 36.1418 49.6475C36.3015 49.5097 36.4525 49.3675 36.5968 49.2166C36.634 49.1575 36.669 49.0984 36.7018 49.0372C36.7018 48.9912 36.7018 48.9431 36.6996 48.895C36.6734 48.7747 36.6428 48.6588 36.6056 48.5406C36.54 48.4137 36.47 48.2934 36.3912 48.1731C36.2971 48.0681 36.2009 47.9675 36.1003 47.8713C36.0565 47.845 36.015 47.8209 35.969 47.7969C35.1268 47.53 34.2321 47.4534 33.3615 47.3266C32.865 47.2566 32.3662 47.1647 31.8762 47.0553C31.4584 46.9634 31.0493 46.8759 30.6687 46.6747C30.2093 46.4362 29.8703 46.1475 29.5596 45.7384C29.3759 45.4912 29.1834 45.1653 29.1156 44.8656C28.9493 44.1503 28.794 43.3606 29.0478 42.6409C29.2228 42.1509 29.4 41.7091 29.7412 41.3109C29.9665 41.0462 30.2225 40.8516 30.5068 40.6459C31.2965 40.075 32.2218 39.7578 33.169 39.5478C33.1384 39.2875 33.1143 39.0272 33.0793 38.7691C33.04 38.5088 32.9984 38.2506 32.9525 37.9925C32.8518 37.4653 32.865 36.9819 33.145 36.5006C33.4009 36.0697 33.8187 35.7437 34.3021 35.6103C34.4706 35.5644 34.6434 35.5425 34.814 35.5425C35.1553 35.5425 35.4965 35.6322 35.794 35.8072C36.1921 36.0369 36.61 36.4919 36.6843 36.9644C36.8112 37.7584 36.89 38.5591 36.9534 39.3641C37.4762 39.4231 37.999 39.5084 38.5175 39.6112C39.5303 39.8081 40.099 41.0003 39.8387 41.9344C39.5543 42.9669 38.5175 43.4788 37.509 43.2556C36.9884 43.1419 36.4721 43.0478 35.945 42.9691C35.2931 42.9056 34.6521 42.8619 33.9959 42.91C33.6284 42.9778 33.2718 43.0697 32.9175 43.1922C32.7184 43.2928 32.5281 43.4066 32.3421 43.5312C32.3378 43.5466 32.3334 43.5641 32.329 43.5772C32.329 43.6144 32.3312 43.6516 32.3334 43.6888C32.3356 43.6975 32.3378 43.7084 32.34 43.7194C33.2718 44.0169 34.2693 44.1481 35.2296 44.2991C35.6846 44.3713 36.1462 44.4325 36.6012 44.5134C37.345 44.6381 38.0187 44.9356 38.5743 45.4672C39.0228 45.8981 39.445 46.4034 39.7206 46.9656C39.9 47.2916 40.0793 47.6416 40.1581 48.0047Z" fill="#3FFFDC"/>
</g>
</svg>
