<svg width="23" height="22" viewBox="0 0 23 22" fill="none" xmlns="http://www.w3.org/2000/svg">
<g id="vuesax/linear/notification-bing">
<g id="notification-bing">
<path id="Vector" d="M11.5 5.90356V8.95606" stroke="white" stroke-width="1.5" stroke-miterlimit="10" stroke-linecap="round"/>
<path id="Vector_2" d="M11.5176 1.83276C8.1443 1.83276 5.41263 4.56443 5.41263 7.93776V9.86276C5.41263 10.4861 5.15596 11.4211 4.83513 11.9528L3.67096 13.8961C2.95596 15.0969 3.45096 16.4353 4.77096 16.8753C9.15263 18.3328 13.8918 18.3328 18.2735 16.8753C19.511 16.4628 20.0426 15.0144 19.3735 13.8961L18.2093 11.9528C17.8885 11.4211 17.6318 10.4769 17.6318 9.86276V7.93776C17.6226 4.58276 14.8726 1.83276 11.5176 1.83276Z" stroke="white" stroke-width="1.5" stroke-miterlimit="10" stroke-linecap="round"/>
<path id="Vector_3" d="M14.556 17.251C14.556 18.9285 13.181 20.3035 11.5035 20.3035C10.6694 20.3035 9.89938 19.9551 9.34938 19.4051C8.79938 18.8551 8.45105 18.0851 8.45105 17.251" stroke="white" stroke-width="1.5" stroke-miterlimit="10"/>
</g>
</g>
</svg>
