<svg width="80" height="80" viewBox="0 0 80 80" fill="none" xmlns="http://www.w3.org/2000/svg">
<g id="profit-generate-profit-make-money-mint-money-svgrepo-com 1">
<path id="Vector" d="M71.9922 15.3906H56.3037V0.625H23.6963V15.3906H8.00781C5.28938 15.3906 3.08594 17.5941 3.08594 20.3125V47.3828H20.21V35.0781H23.6963V79.375H56.3037V35.0781H59.585V47.3828H76.9141V20.3125C76.9141 17.5941 74.7106 15.3906 71.9922 15.3906ZM53.2275 69.5194C49.9813 70.5106 47.4178 73.0609 46.4062 76.2988H33.4272C32.4331 73.1166 29.94 70.5972 26.7725 69.5706V54.0234C28.62 59.1269 33.8419 62.8075 40 62.8075C46.1581 62.8075 51.38 59.1269 53.2275 54.0234V69.5194ZM36.6531 51.5172C37.4256 51.5172 37.9406 51.0022 38.7128 49.2C39.485 46.8831 40.7722 45.0806 42.8322 45.0806C44.8919 45.0806 46.4369 46.3681 46.9519 48.685H49.0116V51.0022H47.2094C47.2094 52.0319 46.6944 53.3191 46.4369 54.3491L43.8622 53.5766C44.1197 53.0619 44.3772 52.0319 44.3772 50.4872C44.3772 49.1997 43.8622 48.4275 43.0897 48.4275C42.3172 48.4275 41.8022 49.2 41.03 51.0022C40.0003 53.5766 38.9706 54.8641 36.9106 54.8641C35.1084 54.6066 33.5634 53.0622 33.0484 51.0022H30.9888V48.685H32.7909C32.7909 47.6553 33.3059 45.5956 33.5634 44.8231L36.1381 45.5956C35.6231 46.3681 35.1081 47.9125 35.1081 49.2C35.1081 50.7447 35.6231 51.5172 36.6531 51.5172ZM53.2275 45.8847C51.38 40.7812 46.1581 37.1006 40 37.1006C33.8419 37.1006 28.62 40.7812 26.7725 45.8847V35.0781H53.2275V45.8847ZM53.2275 15.3906H26.7725V3.70125H53.2275V15.3906ZM57.1241 30.1562C55.765 30.1562 54.6631 29.0544 54.6631 27.6953C54.6631 26.3363 55.765 25.2344 57.1241 25.2344C58.4831 25.2344 59.585 26.3363 59.585 27.6953C59.585 29.0544 58.4831 30.1562 57.1241 30.1562Z" fill="#17B527"/>
</g>
</svg>
