<svg width="101" height="101" viewBox="0 0 101 101" fill="none" xmlns="http://www.w3.org/2000/svg">
<g id="Group 1171275808">
<path id="Ellipse 3228" d="M101 50.5C101 78.3904 78.3904 101 50.5 101C22.6096 101 0 78.3904 0 50.5C0 22.6096 22.6096 0 50.5 0C78.3904 0 101 22.6096 101 50.5ZM5.87183 50.5C5.87183 75.1475 25.8525 95.1282 50.5 95.1282C75.1475 95.1282 95.1282 75.1475 95.1282 50.5C95.1282 25.8525 75.1475 5.87183 50.5 5.87183C25.8525 5.87183 5.87183 25.8525 5.87183 50.5Z" fill="#929292"/>
<path id="Ellipse 3229" d="M0 50.5C-6.05161e-07 57.4222 1.42313 64.2706 4.18102 70.6197C6.93891 76.9688 10.9727 82.6832 16.0318 87.4079C21.0909 92.1326 27.0673 95.7667 33.5899 98.0847C40.1126 100.403 47.0421 101.355 53.9482 100.882C60.8542 100.409 67.5894 98.5221 73.7354 95.3371C79.8814 92.1521 85.307 87.7376 89.6752 82.3677C94.0435 76.9978 97.2611 70.7872 99.1282 64.1215C100.995 57.4558 101.472 50.4775 100.529 43.6198L94.712 44.4198C95.5455 50.4801 95.1241 56.6471 93.474 62.5377C91.824 68.4283 88.9805 73.9168 85.1202 78.6623C81.2599 83.4079 76.4651 87.3091 71.0337 90.1237C65.6024 92.9384 59.6503 94.6063 53.5472 95.024C47.4441 95.4417 41.3203 94.6002 35.5561 92.5518C29.7919 90.5034 24.5104 87.2918 20.0395 83.1165C15.5686 78.9411 12.0039 73.8912 9.5667 68.2803C7.12949 62.6694 5.87183 56.6174 5.87183 50.5H0Z" fill="#76FF35"/>
</g>
</svg>
